<?xml version="1.0" standalone="no"?>
<!DOCTYPE svg PUBLIC "-//W3C//DTD SVG 20010904//EN"
 "http://www.w3.org/TR/2001/REC-SVG-20010904/DTD/svg10.dtd">
<svg version="1.0" xmlns="http://www.w3.org/2000/svg"
 width="96.000000pt" height="96.000000pt" viewBox="0 0 96.000000 96.000000"
 preserveAspectRatio="xMidYMid meet">
<metadata>
Created by potrace 1.11, written by Peter Selinger 2001-2013
</metadata>
<g transform="translate(0.000000,96.000000) scale(0.100000,-0.100000)"
fill="#000000" stroke="none">
<path d="M60 687 c0 -5 20 -40 45 -78 25 -38 45 -72 45 -74 0 -2 15 -25 32
-52 30 -45 32 -53 33 -137 l1 -90 37 -1 37 -1 0 85 0 86 80 130 c68 111 77
131 62 136 -9 3 -24 5 -32 3 -8 -1 -18 -3 -22 -3 -4 -1 -33 -44 -64 -96 -31
-53 -60 -92 -64 -88 -13 14 -110 174 -110 181 0 4 -18 7 -40 7 -22 0 -40 -3
-40 -8z"/>
<path d="M523 693 c-10 -4 -13 -57 -13 -222 l0 -218 33 2 c17 2 35 3 38 4 3 0
5 26 4 58 -2 51 1 59 30 92 19 20 35 34 38 31 2 -3 30 -41 63 -85 32 -44 65
-85 73 -91 10 -8 73 -12 88 -5 3 1 -102 146 -130 181 -49 60 -49 57 2 112 96
104 121 132 121 138 0 4 -18 6 -40 5 -45 -1 -60 -13 -165 -128 -38 -42 -72
-77 -76 -77 -3 0 -5 45 -4 100 1 64 -2 100 -9 101 -6 0 -18 2 -26 3 -8 2 -21
1 -27 -1z"/>
</g>
</svg>
