<?xml version="1.0" standalone="no"?>
<!DOCTYPE svg PUBLIC "-//W3C//DTD SVG 20010904//EN"
 "http://www.w3.org/TR/2001/REC-SVG-20010904/DTD/svg10.dtd">
<svg version="1.0" xmlns="http://www.w3.org/2000/svg"
 width="1417.000000pt" height="1417.000000pt" viewBox="0 0 1417.000000 1417.000000"
 preserveAspectRatio="xMidYMid meet">
<metadata>
Created by potrace 1.11, written by Peter Selinger 2001-2013
</metadata>
<g transform="translate(0.000000,1417.000000) scale(0.100000,-0.100000)"
fill="#000000" stroke="none">
<path d="M790 10233 c0 -2 25 -45 57 -96 31 -51 86 -141 122 -200 36 -59 77
-126 91 -148 14 -22 61 -99 106 -172 133 -218 263 -428 306 -497 22 -36 48
-78 58 -95 9 -16 131 -214 270 -440 139 -225 259 -421 267 -435 8 -14 52 -86
98 -160 46 -74 119 -192 162 -263 43 -70 85 -138 93 -151 8 -14 35 -58 60 -98
25 -40 100 -162 167 -271 68 -109 123 -203 123 -208 0 -5 3 -9 8 -9 4 0 12 -9
17 -20 10 -19 77 -130 210 -345 37 -60 94 -153 126 -206 l59 -97 0 -1276 0
-1276 555 0 555 0 2 1283 3 1282 189 305 c234 378 264 426 292 470 12 19 153
249 313 510 159 261 295 480 300 486 5 6 19 29 30 50 12 21 29 51 39 66 33 53
347 563 357 581 5 9 60 97 120 194 61 98 112 182 114 188 2 5 16 28 31 50 38
56 600 974 606 989 4 10 -119 12 -590 12 -327 -1 -596 -3 -598 -6 -4 -5 -1049
-1746 -1541 -2567 -115 -192 -212 -352 -216 -356 -5 -5 -617 997 -801 1313 -5
8 -33 54 -62 103 -29 48 -57 95 -63 105 -9 15 -123 205 -145 242 -91 148 -146
239 -154 255 -12 23 -162 271 -188 313 -10 15 -21 34 -25 42 -3 8 -14 26 -23
40 -10 14 -27 41 -38 60 -39 69 -248 415 -262 436 -15 20 -19 20 -607 21 -326
0 -593 -2 -593 -4z"/>
<path d="M7528 10220 c-3 -13 -2 -6400 1 -6437 1 -10 117 -13 546 -13 l545 0
0 908 0 907 56 60 c101 107 260 279 288 310 35 38 199 215 240 259 17 18 78
84 136 146 58 63 132 142 165 177 l60 63 120 -162 c66 -89 125 -166 130 -172
6 -6 30 -38 55 -71 24 -33 50 -66 57 -73 7 -7 13 -17 13 -21 0 -4 8 -16 18
-27 10 -10 80 -102 157 -204 77 -102 142 -187 145 -190 3 -3 57 -75 122 -160
64 -85 171 -227 238 -315 67 -88 130 -171 140 -185 10 -14 56 -74 102 -135 46
-60 162 -213 258 -340 96 -126 226 -297 288 -380 63 -82 156 -205 206 -272
l91 -122 648 -1 c356 0 647 1 647 3 0 1 -47 68 -105 147 -58 80 -130 179 -159
220 -47 65 -500 690 -540 745 -19 26 -274 377 -348 479 -20 28 -57 78 -81 111
-43 58 -783 1080 -898 1240 -32 44 -62 85 -66 90 -5 6 -42 57 -83 114 -79 109
-207 287 -234 324 -9 12 -38 53 -66 90 -58 78 -60 67 36 170 65 70 240 260
319 347 28 30 61 66 75 81 14 14 66 70 115 125 83 91 134 146 215 234 18 19
69 75 114 123 96 106 114 125 186 203 81 88 231 252 259 283 13 14 44 49 70
76 25 28 96 104 156 170 61 66 112 122 115 125 3 3 52 57 110 120 58 63 128
140 156 170 28 30 73 79 100 109 83 91 94 103 191 208 52 56 102 110 111 121
9 10 58 64 109 118 50 54 93 104 95 109 2 7 -231 10 -685 11 l-688 0 -117
-124 c-166 -176 -174 -185 -302 -322 -63 -67 -131 -139 -150 -159 -71 -76
-298 -317 -321 -342 -25 -28 -217 -232 -291 -310 -23 -25 -90 -97 -148 -159
-58 -62 -123 -131 -145 -155 -22 -23 -98 -104 -170 -180 -71 -77 -146 -155
-165 -176 -19 -20 -87 -92 -150 -160 -63 -68 -152 -161 -196 -209 -45 -47 -92
-97 -105 -111 -13 -15 -76 -81 -139 -149 -63 -67 -132 -141 -154 -164 -57 -61
-282 -301 -348 -371 l-58 -60 0 1575 0 1576 -544 0 c-484 0 -545 -2 -548 -16z"/>
</g>
</svg>
